<?xml version="1.0" standalone="no"?>
<!DOCTYPE svg PUBLIC "-//W3C//DTD SVG 20010904//EN"
 "http://www.w3.org/TR/2001/REC-SVG-20010904/DTD/svg10.dtd">
<svg version="1.0" xmlns="http://www.w3.org/2000/svg"
 width="244.000000pt" height="244.000000pt" viewBox="0 0 244.000000 244.000000"
 preserveAspectRatio="xMidYMid meet">
<metadata>
Created by potrace 1.14, written by Peter Selinger 2001-2017
</metadata>
<g transform="translate(0.000000,244.000000) scale(0.100000,-0.100000)"
fill="#000000" stroke="none">
<path d="M0 1220 l0 -1220 1220 0 1220 0 0 1220 0 1220 -1220 0 -1220 0 0
-1220z m1972 462 c116 -42 215 -129 269 -233 25 -50 49 -152 49 -211 1 -230
-178 -446 -404 -487 -77 -14 -496 -15 -496 -1 0 11 137 634 146 663 5 14 18
17 95 17 81 0 90 -2 85 -17 -9 -30 -106 -472 -106 -484 0 -7 44 -9 138 -7 159
4 200 18 277 95 63 65 88 135 83 233 -5 88 -27 136 -89 198 -76 75 -111 82
-395 82 -229 0 -245 1 -240 18 3 9 13 50 22 90 l16 74 247 -4 c220 -4 252 -7
303 -26z m-1373 -289 c70 -343 70 -343 79 -343 4 0 99 147 212 325 l205 325
94 0 93 0 -6 -24 c-31 -126 -136 -622 -136 -646 0 -65 40 -106 113 -116 37 -5
46 -10 43 -23 -3 -9 -10 -38 -16 -66 -18 -86 -18 -85 -59 -85 -72 0 -140 28
-191 79 -75 75 -87 156 -50 317 11 48 19 92 17 97 -1 5 -75 -104 -162 -242
l-160 -251 -66 0 -66 0 -47 233 c-26 127 -51 243 -55 257 -7 23 -8 24 -14 5
-3 -11 -29 -125 -57 -254 -27 -129 -52 -236 -54 -238 -2 -2 -41 -3 -88 -1
l-84 3 103 475 c56 261 103 476 103 478 0 1 42 2 93 2 l93 0 63 -307z"/>
</g>
</svg>
